<svg width="24" height="24" viewBox="0 0 24 24" fill="none" xmlns="http://www.w3.org/2000/svg">
<path d="M22.5403 6.50346C22.2873 5.51804 21.5418 4.74196 20.5953 4.47858C18.8796 4 12 4 12 4C12 4 5.12044 4 3.40474 4.47858C2.45821 4.742 1.71273 5.51804 1.45971 6.50346C1 8.28958 1 12.0162 1 12.0162C1 12.0162 1 15.7428 1.45971 17.5289C1.71273 18.5143 2.45821 19.258 3.40474 19.5214C5.12044 20 12 20 12 20C12 20 18.8796 20 20.5953 19.5214C21.5418 19.258 22.2873 18.5143 22.5403 17.5289C23 15.7428 23 12.0162 23 12.0162C23 12.0162 23 8.28958 22.5403 6.50346ZM9.74998 15.3996V8.63271L15.5 12.0162L9.74998 15.3996Z" fill="white"/>
</svg>
